<?xml version="1.0" encoding="UTF-8" standalone="no"?>
<!DOCTYPE svg PUBLIC "-//W3C//DTD SVG 1.1//EN" "http://www.w3.org/Graphics/SVG/1.1/DTD/svg11.dtd">
<svg width="100%" height="100%" viewBox="0 0 64 64" version="1.1" xmlns="http://www.w3.org/2000/svg" xmlns:xlink="http://www.w3.org/1999/xlink" xml:space="preserve" xmlns:serif="http://www.serif.com/" style="fill-rule:evenodd;clip-rule:evenodd;stroke-linecap:round;stroke-linejoin:round;">
    <g id="wood_chisel">
        <path d="M60.1,47.7L47.7,35.2C46.5,34 44.6,34 43.5,35.2L42.8,35.9L41,34.1L41.6,29.7L41.6,29.4L55.3,15.7C55.7,15.3 55.7,14.7 55.3,14.3L47,6C46.8,5.8 46.6,5.7 46.3,5.7C46,5.7 45.8,5.8 45.6,6L32,19.6L18.4,6C18,5.6 17.4,5.6 17,6L8.7,14.3C8.3,14.7 8.3,15.3 8.7,15.7L22.4,29.4L22.4,29.8L23,34.2L21.3,35.9L20.6,35.2C19.4,34 17.5,34 16.4,35.2L3.9,47.7C2.7,48.9 2.7,50.8 3.9,51.9L9.4,57.4C10,58 10.7,58.3 11.5,58.3C12.3,58.3 13.1,58 13.6,57.4L26.1,45C26.7,44.4 27,43.7 27,42.9C27,42.1 26.7,41.3 26.1,40.8L25.4,40.1L27.1,38.4L31.5,39L32,39C32.2,39.1 32.3,39.1 32.5,39.1L36.9,38.5L38.6,40.2L37.9,40.9C37.3,41.3 37,42 37,42.8C37,43.6 37.3,44.4 37.9,44.9L50.4,57.4C51,58 51.7,58.3 52.5,58.3C53.3,58.3 54.1,58 54.6,57.4L60.1,51.9C61.3,50.7 61.3,48.8 60.1,47.7ZM24.7,43.5L12.2,56C11.8,56.4 11.2,56.4 10.8,56L5.3,50.5C4.9,50.1 4.9,49.5 5.3,49.1L17.8,36.6C18,36.4 18.3,36.3 18.5,36.3C18.7,36.3 19,36.4 19.2,36.6L24.7,42.1C24.9,42.3 25,42.5 25,42.8C25,43.1 24.9,43.3 24.7,43.5ZM46.3,8.1L53.2,15L51.8,16.4L44.9,9.5L46.3,8.1ZM43.5,10.9L50.4,17.8L40.3,27.9L33.4,21L43.5,10.9ZM17.7,8.1L19.1,9.5L12.2,16.4L10.8,15L17.7,8.1ZM27,36.3C26.7,36.3 26.4,36.4 26.2,36.6L24,38.6L22.6,37.2L24.7,35.1C24.9,34.9 25,34.6 25,34.2L24.6,31.5L29.6,36.5L27,36.3ZM37.2,36.3L37.1,36.3L32.7,36.9L13.6,17.8L20.5,10.9L39.6,30L39,34.4C39,34.7 39.1,35 39.3,35.2L41.4,37.3L40,38.6L37.9,36.5C37.7,36.4 37.5,36.3 37.2,36.3ZM58.7,50.5L53.2,56C52.8,56.4 52.2,56.4 51.8,56L39.3,43.5C39.1,43.3 39,43.1 39,42.8C39,42.5 39.1,42.3 39.3,42.1L44.8,36.6C45,36.4 45.3,36.3 45.5,36.3C45.7,36.3 46,36.4 46.2,36.6L58.7,49.1C59.1,49.5 59.1,50.1 58.7,50.5Z" style="fill:none;fill-rule:nonzero;stroke:rgb(245,245,245);stroke-width:0.48px;"/>
    </g>
</svg>
