<?xml version="1.0" encoding="UTF-8" standalone="no"?>
<!DOCTYPE svg PUBLIC "-//W3C//DTD SVG 1.1//EN" "http://www.w3.org/Graphics/SVG/1.1/DTD/svg11.dtd">
<svg width="100%" height="100%" viewBox="0 0 64 64" version="1.1" xmlns="http://www.w3.org/2000/svg" xmlns:xlink="http://www.w3.org/1999/xlink" xml:space="preserve" xmlns:serif="http://www.serif.com/" style="fill-rule:evenodd;clip-rule:evenodd;stroke-linejoin:round;stroke-miterlimit:2;">
    <g transform="matrix(1.5625,0,0,1.5625,0,0)">
        <g transform="matrix(0.076488,0,0,0.069367,0.898951,3.647931)">
            <path d="M452.677,273.637C457.104,273.637 460.694,277.226 460.694,281.653L460.694,503.984C460.694,508.412 457.105,512.001 452.677,512.001L213.245,512.001C208.816,512.001 205.228,508.412 205.228,503.984C205.228,499.556 208.817,495.967 213.245,495.967L444.66,495.967L444.66,281.654C444.66,277.226 448.249,273.637 452.677,273.637Z" style="fill:rgb(235,235,235);fill-opacity:0;stroke:rgb(235,235,235);stroke-width:4.2px;"/>
        </g>
    </g>
    <g transform="matrix(1.648456,0,0,1.648456,-1.760375,-0.313567)">
        <g transform="matrix(0.64,0,0,0.64,0,0)">
            <path d="M60.641,25.194C60.951,25.408 61.077,25.778 60.953,26.113C60.828,26.448 60.482,26.674 60.092,26.674L55.188,26.674L55.188,30.243C55.188,30.698 54.781,31.067 54.28,31.067C53.778,31.067 53.372,30.698 53.372,30.243L53.372,25.851C53.372,25.396 53.778,25.027 54.28,25.027L57.392,25.027L32,7.557L6.608,25.027L9.72,25.027C10.222,25.027 10.628,25.396 10.628,25.85L10.628,56.653L21.345,56.653C21.846,56.653 22.253,57.021 22.253,57.476C22.253,57.931 21.846,58.3 21.345,58.3L9.72,58.3C9.219,58.3 8.812,57.931 8.812,57.476L8.812,26.674L3.908,26.674C3.518,26.674 3.172,26.448 3.048,26.113C2.923,25.778 3.049,25.408 3.359,25.194L8.812,21.443L8.812,10.861L7.783,10.861C7.281,10.861 6.875,10.492 6.875,10.038L6.875,6.524C6.875,6.069 7.281,5.7 7.783,5.7L21.344,5.7C21.846,5.7 22.253,6.069 22.253,6.524L22.253,10.038C22.253,10.493 21.846,10.861 21.344,10.861L20.315,10.861L20.315,13.529L31.451,5.867C31.776,5.644 32.224,5.644 32.549,5.867L60.641,25.194Z" style="fill:rgb(235,235,235);fill-opacity:0;fill-rule:nonzero;stroke:rgb(235,235,235);stroke-width:0.45px;"/>
        </g>
        <g transform="matrix(0.64,0,0,0.64,0,0)">
            <rect x="8.691" y="7.347" width="11.745" height="1.867" style="fill:rgb(235,235,235);fill-opacity:0;fill-rule:nonzero;stroke:rgb(235,235,235);stroke-width:0.45px;"/>
        </g>
    </g>
    <g transform="matrix(1.055012,0,0,1.055012,-1.760375,-0.313567)">
        <path d="M51.363,47.48C52.325,48.506 52.183,50.09 51.052,50.962L47.915,53.381C46.785,54.252 45.035,54.123 44.075,53.099L35.84,44.314C35.684,44.148 35.607,43.932 35.627,43.714L35.785,41.936L33.929,39.956L32.3,41.433L33.027,42.093C33.198,42.248 33.293,42.457 33.293,42.675L33.293,45.16C33.293,45.379 33.198,45.588 33.027,45.742L24.037,53.896C22.988,54.848 21.234,54.845 20.184,53.896L17.273,51.256C16.223,50.303 16.223,48.714 17.273,47.761L26.263,39.609C26.434,39.454 26.665,39.367 26.905,39.367L29.645,39.367C29.886,39.367 30.117,39.454 30.287,39.609L31.015,40.268L32.748,38.697L28.157,33.798L26.106,35.379C26.583,35.888 26.876,36.479 26.854,37.158C26.83,37.855 26.481,38.517 25.895,38.969L24.235,40.249C23.103,41.122 21.355,40.993 20.394,39.967L13.335,32.437C12.373,31.411 12.515,29.827 13.646,28.955L15.307,27.674C15.861,27.247 16.568,27.041 17.292,27.094C18.017,27.147 18.676,27.453 19.147,27.956L19.283,28.101L27.816,21.521C29.479,20.239 31.593,19.62 33.77,19.78C35.946,19.94 37.923,20.859 39.337,22.367L42.196,25.408C42.602,25.84 42.398,26.529 41.808,26.718L34.143,29.183L32.492,30.455L36.786,35.035L40.749,31.441L40.021,30.781C39.671,30.464 39.671,29.933 40.021,29.616L42.761,27.132C42.813,27.084 42.872,27.042 42.936,27.008L46.361,25.144C46.718,24.95 47.175,25.001 47.47,25.268L48.84,26.51C49.134,26.777 49.191,27.192 48.976,27.516L46.921,30.622C46.883,30.68 46.837,30.733 46.785,30.781L44.045,33.266C43.695,33.583 43.11,33.583 42.761,33.266L42.033,32.606L37.966,36.294L39.759,38.206C39.765,38.207 39.772,38.207 39.778,38.207L42.509,38.408C42.749,38.425 42.972,38.529 43.128,38.695L51.363,47.48Z" style="fill:rgb(235,235,235);fill-opacity:0;fill-rule:nonzero;stroke:rgb(235,235,235);stroke-width:0.45px;"/>
    </g>
</svg>
