<?xml version="1.0" encoding="UTF-8" standalone="no"?>
<!DOCTYPE svg PUBLIC "-//W3C//DTD SVG 1.1//EN" "http://www.w3.org/Graphics/SVG/1.1/DTD/svg11.dtd">
<svg width="100%" height="100%" viewBox="0 0 64 64" version="1.1" xmlns="http://www.w3.org/2000/svg" xmlns:xlink="http://www.w3.org/1999/xlink" xml:space="preserve" xmlns:serif="http://www.serif.com/" style="fill-rule:evenodd;clip-rule:evenodd;stroke-linejoin:round;stroke-miterlimit:2;">
    <g transform="matrix(1.5625,0,0,1.5625,0,0)">
        <g transform="matrix(0.0725,0,0,0.06575,1.91997,3.647934)">
            <path d="M452.677,273.637C448.249,273.637 444.66,277.226 444.66,281.654L444.66,495.967L213.245,495.967C208.817,495.967 205.228,499.556 205.228,503.984C205.228,508.412 208.816,512.001 213.245,512.001L452.677,512.001C457.105,512.001 460.694,508.412 460.694,503.984L460.694,281.653C460.694,277.226 457.104,273.637 452.677,273.637Z" style="fill:rgb(235,235,235);fill-rule:nonzero;"/>
        </g>
    </g>
    <g transform="matrix(1.5625,0,0,1.5625,0,0)">
        <g transform="matrix(0.0725,0,0,0.06575,1.91997,3.647934)">
            <path d="M508.829,189.756L260.846,1.631C257.981,-0.542 254.019,-0.542 251.155,1.631L152.852,76.205L152.852,50.24L161.938,50.24C166.366,50.24 169.955,46.651 169.955,42.223L169.955,8.018C169.955,3.591 166.367,0.001 161.938,0.001L42.223,0.001C37.795,0.001 34.206,3.59 34.206,8.018L34.206,42.223C34.206,46.65 37.794,50.24 42.223,50.24L51.309,50.24L51.309,153.24L3.172,189.756C0.43,191.836 -0.679,195.436 0.42,198.698C1.517,201.961 4.576,204.159 8.018,204.159L51.308,204.159L51.308,503.983C51.308,508.41 54.896,512 59.325,512L161.939,512C166.367,512 169.956,508.411 169.956,503.983C169.956,499.555 166.368,495.966 161.939,495.966L67.341,495.966L67.341,196.142C67.341,191.715 63.753,188.125 59.324,188.125L31.849,188.125L256.001,18.081L480.152,188.127L452.677,188.127C448.249,188.127 444.66,191.716 444.66,196.144L444.66,238.9C444.66,243.327 448.248,246.917 452.677,246.917C457.105,246.917 460.694,243.328 460.694,238.9L460.694,204.16L503.984,204.16C507.427,204.16 510.485,201.962 511.582,198.699C512.679,195.436 511.571,191.837 508.829,189.756ZM50.239,34.206L50.239,16.035L153.921,16.035L153.921,34.206L50.239,34.206ZM136.82,88.369L67.342,141.076L67.342,50.24L136.82,50.24L136.82,88.369Z" style="fill:rgb(235,235,235);fill-rule:nonzero;"/>
        </g>
    </g>
    <g transform="matrix(1.5625,0,0,1.5625,0,0)">
        <g transform="matrix(0.0725,0,0,0.06575,1.91997,3.647934)">
            <path d="M426.929,406.677L354.232,321.169C352.855,319.549 350.891,318.543 348.772,318.371L324.664,316.419C324.607,316.415 324.551,316.417 324.493,316.414L308.667,297.799L344.567,261.898L350.991,268.322C354.079,271.409 359.242,271.409 362.329,268.322L386.515,244.136C386.979,243.672 387.383,243.154 387.721,242.592L405.861,212.358C407.754,209.204 407.256,205.165 404.655,202.565L392.563,190.473C389.962,187.872 385.924,187.373 382.77,189.267L352.537,207.407C351.975,207.744 351.455,208.149 350.992,208.613L326.805,232.8C323.719,235.886 323.719,241.051 326.805,244.137L333.229,250.561L298.247,285.544L260.346,240.965L274.919,228.576L342.585,204.591C347.787,202.747 349.594,196.041 346.007,191.833L320.768,162.238C308.284,147.555 290.832,138.612 271.621,137.056C252.406,135.5 233.747,141.52 219.065,154.002L143.736,218.046L142.541,216.64C138.381,211.746 132.563,208.764 126.16,208.246C119.769,207.73 113.535,209.733 108.64,213.895L93.982,226.357C83.996,234.847 82.742,250.266 91.237,260.258L153.549,333.55C162.035,343.536 177.459,344.789 187.45,336.295L202.108,323.833C207.277,319.439 210.366,312.988 210.57,306.208C210.769,299.601 208.18,293.845 203.971,288.894L222.072,273.505L262.606,321.184L247.306,336.484L240.883,330.061C239.379,328.557 237.341,327.713 235.214,327.713L211.028,327.713C208.902,327.713 206.864,328.557 205.359,330.061L126,409.42C116.729,418.691 116.728,434.161 125.999,443.432L151.696,469.13C160.967,478.373 176.442,478.396 185.709,469.13L265.07,389.768C266.573,388.265 267.417,386.226 267.417,384.1L267.417,359.914C267.417,357.788 266.573,355.749 265.07,354.246L258.646,347.822L273.028,333.44L289.416,352.716L288.015,370.025C287.844,372.145 288.522,374.245 289.898,375.864L362.595,461.372C371.072,471.343 386.519,472.6 396.495,464.117L424.184,440.578C434.17,432.089 435.425,416.67 426.929,406.677ZM361.633,220.649L385.653,206.237L388.893,209.478L374.482,233.498L356.662,251.318L343.813,238.469L361.633,220.649ZM174.373,457.793C171.244,460.919 166.16,460.917 163.034,457.793L163.035,457.793L137.337,432.095C134.248,429.005 134.249,423.847 137.338,420.758L204.983,353.112L242.018,390.147L174.373,457.793ZM251.387,376.841L218.292,343.746L231.897,343.746L241.639,353.487C241.64,353.488 241.641,353.489 241.641,353.49C241.641,353.491 241.643,353.491 241.644,353.492L251.387,363.235L251.387,376.841ZM270.332,153.037C285.273,154.247 298.848,161.202 308.564,172.632L326.251,193.372L273.383,212.111L232.385,163.888C243.306,155.766 256.643,151.927 270.332,153.037ZM194.524,306.155C194.351,308.29 193.357,310.229 191.727,311.615L191.726,311.615L177.067,324.077C173.737,326.908 168.595,326.488 165.768,323.162L103.456,249.87C100.624,246.539 101.043,241.399 104.371,238.57L119.03,226.108C122.361,223.275 127.5,223.696 130.329,227.023L192.641,300.315C194.028,301.946 194.696,304.021 194.524,306.155ZM193.589,276.678L154.124,230.259L220.086,174.179L259.551,220.598L193.589,276.678ZM234.291,263.119L248.134,251.349L310.833,325.096L296.989,336.867L234.291,263.119ZM413.801,428.361L413.8,428.361L386.111,451.901C382.781,454.732 377.641,454.315 374.812,450.986L304.266,368.008L305.681,350.52L326.68,332.666L344.167,334.082L414.714,417.061C417.547,420.391 417.128,425.532 413.801,428.361Z" style="fill:rgb(235,235,235);fill-rule:nonzero;"/>
        </g>
    </g>
</svg>
