<?xml version="1.0" encoding="UTF-8" standalone="no"?>
<!DOCTYPE svg PUBLIC "-//W3C//DTD SVG 1.1//EN" "http://www.w3.org/Graphics/SVG/1.1/DTD/svg11.dtd">
<svg width="100%" height="100%" viewBox="0 0 64 64" version="1.1" xmlns="http://www.w3.org/2000/svg" xmlns:xlink="http://www.w3.org/1999/xlink" xml:space="preserve" xmlns:serif="http://www.serif.com/" style="fill-rule:evenodd;clip-rule:evenodd;stroke-linejoin:round;stroke-miterlimit:2;">
    <g transform="matrix(1.5625,0,0,1.5625,-368,-368)">
        <g transform="matrix(0.0725,0,0,0.06625,237.439927,239.039992)">
            <path d="M492.499,19.502C466.488,-6.499 424.17,-6.504 398.17,19.508C364.798,52.879 328.761,88.915 254.343,163.33C252.573,165.094 251.227,167.239 250.397,169.6L212.157,278.59C210.035,284.636 211.571,291.367 216.103,295.9C220.632,300.429 227.342,301.968 233.413,299.846L342.403,261.606C344.764,260.776 346.909,259.429 348.673,257.66C423.047,183.286 459.147,147.186 492.5,113.833C518.499,87.825 518.499,45.513 492.499,19.502ZM255.114,256.887L272.385,207.664L304.338,239.617L255.114,256.887ZM468.919,90.251L445.336,113.834L398.167,66.668L421.749,43.086C434.749,30.081 455.913,30.081 468.919,43.086C481.913,56.092 481.913,77.245 468.919,90.251Z" style="fill-opacity:0;fill-rule:nonzero;stroke:rgb(235,235,235);stroke-width:4.61px;"/>
        </g>
    </g>
    <g transform="matrix(1.5625,0,0,1.5625,-368,-368)">
        <g>
            <g transform="matrix(0.0725,0,0,0.06625,237.439927,239.039992)">
                <path d="M506.481,483.536C516.953,494.007 509.527,512 494.692,512L16.676,512C7.465,512 0.001,504.536 0.001,495.325L0.001,445.3L33.351,445.3C42.562,445.3 50.026,437.836 50.026,428.625C50.026,419.414 42.562,411.95 33.351,411.95L0.001,411.95L0.001,378.6L33.351,378.6C42.562,378.6 50.026,371.136 50.026,361.925C50.026,352.714 42.562,345.25 33.351,345.25L0.001,345.25L0.001,311.9L33.351,311.9C42.562,311.9 50.026,304.436 50.026,295.225C50.026,286.014 42.562,278.55 33.351,278.55L0.001,278.55L0.001,245.2L33.351,245.2C42.562,245.2 50.026,237.736 50.026,228.525C50.026,219.314 42.562,211.85 33.351,211.85L0.001,211.85L0.001,178.5L33.351,178.5C42.562,178.5 50.026,171.036 50.026,161.825C50.026,152.614 42.562,145.15 33.351,145.15L0.001,145.15L0.001,17.309C0.001,2.46 18.024,-4.958 28.465,5.519L209.211,186.265L180.691,267.544C176.532,279.394 177.194,292.223 181.914,303.485L128.516,250.087C118.07,239.616 100.052,247.021 100.052,261.876L100.052,395.276C100.052,404.487 107.516,411.951 116.727,411.951L250.127,411.951C264.953,411.951 272.402,393.961 261.916,383.487L208.798,330.369C214.773,332.836 221.232,334.134 227.893,334.134C233.526,334.134 239.085,333.19 244.453,331.317L325.739,302.794L506.481,483.536Z" style="fill-opacity:0;fill-rule:nonzero;stroke:rgb(235,235,235);stroke-width:4.97px;stroke-linejoin:bevel;"/>
            </g>
        </g>
    </g>
</svg>
