<?xml version="1.0" encoding="UTF-8" standalone="no"?>
<!DOCTYPE svg PUBLIC "-//W3C//DTD SVG 1.1//EN" "http://www.w3.org/Graphics/SVG/1.1/DTD/svg11.dtd">
<svg width="100%" height="100%" viewBox="0 0 64 64" version="1.1" xmlns="http://www.w3.org/2000/svg" xmlns:xlink="http://www.w3.org/1999/xlink" xml:space="preserve" xmlns:serif="http://www.serif.com/" style="fill-rule:evenodd;clip-rule:evenodd;stroke-linejoin:round;stroke-miterlimit:2;">
    <g transform="matrix(0.969847,0,0,1.03282,24.255911,29.174515)">
        <path d="M11.26,12.63L13.09,13.72C13.452,13.439 13.787,13.124 14.09,12.78C14.814,11.953 15.346,10.976 15.65,9.92L13.91,8.92C13.967,8.617 13.997,8.309 14,8C13.999,7.698 13.972,7.397 13.92,7.1L15.66,6.1C15.39,5.161 14.938,4.284 14.33,3.52C13.965,3.067 13.549,2.657 13.09,2.3L11.26,3.34C10.909,3.126 10.537,2.948 10.15,2.81L10.15,0.81C9.429,0.621 8.686,0.527 7.94,0.53C7.177,0.527 6.416,0.628 5.68,0.83L5.68,2.83C5.292,2.978 4.917,3.158 4.56,3.37L2.78,2.28C1.545,3.238 0.643,4.561 0.2,6.06L1.92,7.06C1.868,7.357 1.841,7.658 1.84,7.96C1.841,8.262 1.868,8.563 1.92,8.86L0.19,9.86C0.304,10.254 0.447,10.638 0.62,11.01C0.67,11.11 0.72,11.22 0.78,11.32L0.78,11.42L0.89,11.61L1.01,11.8L1.01,11.86C1.459,12.536 2.013,13.137 2.65,13.64L4.46,12.56C4.817,12.772 5.192,12.952 5.58,13.1L5.58,15.1C6.316,15.306 7.076,15.41 7.84,15.41C8.59,15.408 9.336,15.307 10.06,15.11L10.06,13.11C10.476,12.994 10.878,12.833 11.26,12.63ZM8.87,14.15C8.555,14.19 8.238,14.21 7.92,14.21C7.586,14.212 7.252,14.192 6.92,14.15L6.92,12.46C5.971,12.294 5.091,11.852 4.39,11.19L2.85,12.11C2.408,11.633 2.044,11.09 1.77,10.5L3.33,9.57C2.923,8.553 2.923,7.417 3.33,6.4L1.77,5.48C2.053,4.883 2.432,4.336 2.89,3.86L4.45,4.79C5.16,4.132 6.046,3.694 7,3.53L7,1.82C7.332,1.778 7.666,1.758 8,1.76C8.318,1.76 8.635,1.78 8.95,1.82L8.95,3.54C9.852,3.726 10.684,4.163 11.35,4.8L12.94,3.86C13.392,4.339 13.767,4.885 14.05,5.48L12.45,6.42C12.647,6.923 12.749,7.459 12.75,8C12.747,8.53 12.648,9.055 12.46,9.55L14.02,10.48C13.734,11.07 13.36,11.613 12.91,12.09L11.33,11.16C10.639,11.815 9.775,12.259 8.84,12.44L8.87,14.15Z" style="fill-opacity:0;fill-rule:nonzero;stroke:rgb(235,235,235);stroke-width:0.4px;"/>
    </g>
    <g transform="matrix(0.969847,0,0,1.03282,24.255911,29.174515)">
        <path d="M7.92,5.49C7.893,5.489 7.866,5.489 7.839,5.489C6.448,5.489 5.292,6.61 5.25,8C5.292,9.39 6.448,10.511 7.839,10.511C7.866,10.511 7.893,10.511 7.92,10.51C9.343,10.555 10.551,9.423 10.6,8C10.551,6.577 9.343,5.445 7.92,5.49ZM8,9.2C7.276,9.258 6.628,8.722 6.55,8C6.575,7.277 7.176,6.696 7.899,6.696C7.933,6.696 7.966,6.697 8,6.7C8.737,6.678 9.363,7.263 9.39,8C9.312,8.698 8.702,9.225 8,9.2Z" style="fill-opacity:0;fill-rule:nonzero;stroke:rgb(235,235,235);stroke-width:0.4px;"/>
    </g>
    <g transform="matrix(1,0,0,1,0.79671,-1.560283)">
        <circle cx="31.203" cy="14.1" r="2.632" style="fill-opacity:0;stroke:rgb(235,235,235);stroke-width:0.36px;stroke-linecap:round;stroke-miterlimit:1.5;"/>
    </g>
    <g transform="matrix(1.808908,0,0,2.043126,-25.938225,-29.656405)">
        <path d="M15.998,23.623L16.07,43.05L48.061,43.05L48.061,23.478L15.998,23.623Z" style="fill:none;stroke:rgb(235,235,235);stroke-width:0.26px;stroke-linecap:round;stroke-miterlimit:1.5;"/>
    </g>
    <g transform="matrix(1.808908,0,0,2.043126,-25.938225,-29.656405)">
        <path d="M15.998,23.478L32,17.305L48.061,23.478" style="fill:none;stroke:rgb(235,235,235);stroke-width:0.26px;stroke-linecap:round;stroke-miterlimit:1.5;"/>
    </g>
    <g transform="matrix(1.207729,0,0,1,-1.305045,32.036788)">
        <path d="M6.282,5.369L17.649,5.369" style="fill:none;"/>
        <g transform="matrix(0.828001,-0,-0,1,1.080578,-32.036788)">
            <path d="M8.804,35.515L6.282,37.406L8.804,39.297L8.804,35.515Z" style="fill:rgb(235,235,235);"/>
            <path d="M8.3,37.406L20.011,37.406" style="fill:none;stroke:rgb(235,235,235);stroke-width:0.48px;stroke-linecap:round;stroke-miterlimit:1.5;"/>
        </g>
    </g>
    <g transform="matrix(-1.207725,-0.003119,0.002583,-0.999997,65.184799,42.812596)">
        <path d="M6.282,5.369L17.649,5.369" style="fill:none;"/>
        <g transform="matrix(-0.827998,0.002583,-0.002138,-0.999997,54.064418,42.64411)">
            <path d="M55.084,39.309L57.611,37.424L55.094,35.526L55.084,39.309Z" style="fill:rgb(235,235,235);"/>
            <path d="M55.594,37.419C51.778,37.409 43.883,37.388 43.883,37.388" style="fill:none;stroke:rgb(235,235,235);stroke-width:0.48px;stroke-linecap:round;stroke-miterlimit:1.5;"/>
        </g>
    </g>
    <g transform="matrix(0,0.548858,-0.454455,0,34.382033,18.242713)">
        <path d="M6.282,5.369L17.649,5.369" style="fill:none;"/>
        <g transform="matrix(0,-2.20044,1.821965,0,-33.237588,75.655587)">
            <path d="M33.833,24.213L31.942,21.691L30.051,24.213L33.833,24.213Z" style="fill:rgb(235,235,235);"/>
            <path d="M31.942,23.708L31.942,27.93" style="fill:none;stroke:rgb(235,235,235);stroke-width:0.48px;stroke-linecap:round;stroke-miterlimit:1.5;"/>
        </g>
    </g>
    <g transform="matrix(0,-0.548858,0.454455,0,29.50187,57.377902)">
        <path d="M6.282,5.369L17.649,5.369" style="fill:none;"/>
        <g transform="matrix(0,2.20044,-1.821965,0,104.54054,-64.917084)">
            <path d="M30.051,51.408L31.942,53.93L33.833,51.408L30.051,51.408Z" style="fill:rgb(235,235,235);"/>
            <path d="M31.942,51.912L31.942,47.691" style="fill:none;stroke:rgb(235,235,235);stroke-width:0.48px;stroke-linecap:round;stroke-miterlimit:1.5;"/>
        </g>
    </g>
</svg>
