<?xml version="1.0" encoding="UTF-8" standalone="no"?>
<!DOCTYPE svg PUBLIC "-//W3C//DTD SVG 1.1//EN" "http://www.w3.org/Graphics/SVG/1.1/DTD/svg11.dtd">
<svg width="100%" height="100%" viewBox="0 0 64 64" version="1.1" xmlns="http://www.w3.org/2000/svg" xmlns:xlink="http://www.w3.org/1999/xlink" xml:space="preserve" xmlns:serif="http://www.serif.com/" style="fill-rule:evenodd;clip-rule:evenodd;stroke-linecap:round;stroke-linejoin:round;stroke-miterlimit:2;">
    <g id="Expanded">
        <path d="M7.148,6L7.148,58C7.148,59.657 8.491,61 10.148,61L53.852,61C55.509,61 56.852,59.657 56.852,58L56.852,6C56.852,4.343 55.509,3 53.852,3L10.148,3C8.491,3 7.148,4.343 7.148,6ZM54.852,56L54.852,58C54.852,58.552 54.404,59 53.852,59L10.148,59C9.596,59 9.148,58.552 9.148,58L9.148,56L54.852,56ZM9.148,20L9.148,54L54.852,54L54.852,20L9.148,20ZM46.46,41L49,41C49.552,41 50,40.552 50,40L50,34C50,33.448 49.552,33 49,33L46.46,33C44.707,26.661 38.894,22 32,22C23.721,22 17,28.721 17,37C17,45.279 23.721,52 32,52C38.894,52 44.707,47.339 46.46,41ZM44.372,33C42.684,27.78 37.78,24 32,24C24.825,24 19,29.825 19,37C19,44.175 24.825,50 32,50C37.78,50 42.684,46.22 44.372,41L41.233,41C39.685,44.565 36.132,47.061 32,47.061C26.447,47.061 21.939,42.553 21.939,37C21.939,31.447 26.447,26.939 32,26.939C36.132,26.939 39.685,29.435 41.233,33L44.372,33ZM39.042,33.076C37.663,30.609 35.025,28.939 32,28.939C27.551,28.939 23.939,32.551 23.939,37C23.939,41.449 27.551,45.061 32,45.061C35.025,45.061 37.663,43.391 39.042,40.924C37.208,40.561 35.822,38.941 35.822,37C35.822,35.059 37.208,33.439 39.042,33.076ZM48,35L39.822,35C38.719,35 37.822,35.896 37.822,37C37.822,38.104 38.719,39 39.822,39L48,39L48,35ZM54.852,18L9.148,18L9.148,6C9.148,5.448 9.596,5 10.148,5L53.852,5C54.404,5 54.852,5.448 54.852,6L54.852,18ZM28,8C28,7.448 27.552,7 27,7L12,7C11.448,7 11,7.448 11,8L11,15C11,15.552 11.448,16 12,16L27,16C27.552,16 28,15.552 28,15L28,8ZM49.5,8.5C47.568,8.5 46,10.068 46,12C46,13.932 47.568,15.5 49.5,15.5C51.432,15.5 53,13.932 53,12C53,10.068 51.432,8.5 49.5,8.5ZM40.5,8.5C38.568,8.5 37,10.068 37,12C37,13.932 38.568,15.5 40.5,15.5C42.432,15.5 44,13.932 44,12C44,10.068 42.432,8.5 40.5,8.5ZM26,9L26,14L13,14L13,9L26,9ZM49.5,10.5C50.328,10.5 51,11.172 51,12C51,12.828 50.328,13.5 49.5,13.5C48.672,13.5 48,12.828 48,12C48,11.172 48.672,10.5 49.5,10.5ZM40.5,10.5C41.328,10.5 42,11.172 42,12C42,12.828 41.328,13.5 40.5,13.5C39.672,13.5 39,12.828 39,12C39,11.172 39.672,10.5 40.5,10.5Z" style="fill:none;stroke:rgb(245,245,245);stroke-width:0.51px;"/>
    </g>
</svg>
